<?xml version="1.0" standalone="no"?>
<!DOCTYPE svg PUBLIC "-//W3C//DTD SVG 20010904//EN"
 "http://www.w3.org/TR/2001/REC-SVG-20010904/DTD/svg10.dtd">
<svg version="1.0" xmlns="http://www.w3.org/2000/svg"
 width="200.000000pt" height="200.000000pt" viewBox="0 0 200.000000 200.000000"
 preserveAspectRatio="xMidYMid meet">
<metadata>
Created by potrace 1.10, written by Peter Selinger 2001-2011
</metadata>
<g transform="translate(0.000000,200.000000) scale(0.100000,-0.100000)"
fill="#000000" stroke="none">
<path d="M860 1729 c-33 -13 -78 -57 -97 -94 -22 -41 -20 -126 3 -166 53 -90
158 -123 249 -79 68 33 100 86 100 165 0 50 -5 69 -28 103 -15 23 -45 51 -67
62 -42 22 -117 26 -160 9z m130 -76 c67 -46 74 -120 18 -180 -65 -69 -188 -15
-188 82 0 47 14 71 53 95 39 24 85 25 117 3z"/>
<path d="M778 1296 c-127 -52 -222 -171 -243 -303 l-7 -43 35 0 c33 0 35 2 41
41 8 53 38 110 82 159 36 40 101 86 110 78 2 -3 -5 -85 -17 -182 -17 -149 -18
-180 -7 -196 43 -62 154 -198 159 -197 4 1 44 49 89 107 l83 104 -21 180 c-11
99 -19 182 -17 184 8 8 68 -31 105 -68 48 -48 78 -106 87 -165 6 -44 6 -45 43
-45 l38 0 -14 62 c-8 34 -26 83 -41 110 -50 92 -168 179 -262 194 -50 8 -48
30 -17 -231 l24 -199 -46 -58 c-25 -32 -49 -57 -53 -56 -4 2 -25 26 -48 55
-48 62 -48 58 -21 283 11 91 20 175 20 188 0 29 -27 29 -102 -2z m72 -50 c0
-23 -13 -26 -38 -10 -13 8 -31 13 -40 9 -13 -5 -12 -2 3 13 16 15 25 17 48 10
15 -6 27 -16 27 -22z m215 23 c8 -12 -22 -49 -39 -49 -6 0 -11 13 -12 28 -1
22 4 28 22 30 13 1 26 -3 29 -9z m-121 -517 c15 3 18 -6 9 -29 -6 -17 -34 -17
-30 -1 1 7 -4 12 -10 13 -7 0 -13 3 -13 8 0 4 0 12 0 18 0 8 4 8 14 0 8 -7 21
-11 30 -9z"/>
<path d="M535 856 c11 -70 61 -163 114 -215 131 -128 307 -152 476 -66 l69 35
59 -57 c33 -32 65 -72 72 -89 19 -42 99 -114 128 -114 28 0 57 29 57 56 0 20
-97 124 -116 124 -6 0 -43 30 -82 68 l-72 67 30 44 c31 45 60 127 60 167 0 19
-5 23 -31 22 -17 -1 -32 -6 -34 -12 -26 -102 -39 -130 -90 -185 -63 -67 -129
-101 -215 -108 -104 -10 -220 40 -289 124 -31 38 -71 128 -71 161 0 14 -8 18
-36 18 l-35 0 6 -40z m865 -376 c0 -5 9 -12 21 -15 11 -4 18 -9 16 -12 -3 -2
4 -14 15 -25 24 -24 18 -33 -16 -24 -18 4 -24 11 -19 23 4 10 2 14 -4 10 -6
-4 -16 0 -23 8 -7 8 -9 15 -4 15 5 0 -2 7 -14 16 -27 19 -20 39 9 24 10 -6 19
-15 19 -20z"/>
</g>
</svg>
